<?xml version="1.0" encoding="UTF-8" standalone="no"?>
<!-- Generator: Gravit.io -->
<svg xmlns="http://www.w3.org/2000/svg" xmlns:xlink="http://www.w3.org/1999/xlink" style="isolation:isolate" viewBox="0 0 560 315" width="560px" height="315px"><defs><clipPath id="_clipPath_vxUvfcW6RMHhKzEQcxlb6GF9sGiwDUCT"><rect width="560" height="315"/></clipPath></defs><g clip-path="url(#_clipPath_vxUvfcW6RMHhKzEQcxlb6GF9sGiwDUCT)"><path d=" M 114.258 43.75 L 114.258 43.75 L 114.258 43.75 Q 114.258 45.801 113.965 51.807 L 113.965 51.807 L 113.965 51.807 Q 113.672 57.813 113.232 66.235 L 113.232 66.235 L 113.232 66.235 Q 112.793 74.658 112.28 84.692 L 112.28 84.692 L 112.28 84.692 Q 111.768 94.727 111.182 104.761 L 111.182 104.761 L 111.182 104.761 Q 110.596 114.795 110.156 124.17 L 110.156 124.17 L 110.156 124.17 Q 109.717 133.545 109.57 140.576 L 109.57 140.576 L 109.57 140.576 Q 109.277 144.824 109.204 149.951 L 109.204 149.951 L 109.204 149.951 Q 109.131 155.078 109.131 160.938 L 109.131 160.938 L 109.131 160.938 Q 109.131 168.701 109.204 177.124 L 109.204 177.124 L 109.204 177.124 Q 109.277 185.547 109.424 193.75 L 109.424 193.75 L 109.424 193.75 Q 109.57 201.953 109.79 209.497 L 109.79 209.497 L 109.79 209.497 Q 110.01 217.041 110.156 223.047 L 110.156 223.047 L 110.156 223.047 Q 110.303 229.053 110.376 233.081 L 110.376 233.081 L 110.376 233.081 Q 110.449 237.109 110.449 238.135 L 110.449 238.135 L 110.449 238.135 Q 110.449 240.186 109.79 241.284 L 109.79 241.284 L 109.79 241.284 Q 109.131 242.383 108.179 242.749 L 108.179 242.749 L 108.179 242.749 Q 107.227 243.115 106.201 242.896 L 106.201 242.896 L 106.201 242.896 Q 105.176 242.676 104.443 242.236 L 104.443 242.236 L 104.443 242.236 Q 103.564 241.797 103.052 241.211 L 103.052 241.211 L 103.052 241.211 Q 102.539 240.625 102.246 240.332 L 102.246 240.332 L 102.246 240.332 Q 101.953 240.039 101.733 240.186 L 101.733 240.186 L 101.733 240.186 Q 101.514 240.332 101.367 241.357 L 101.367 241.357 L 101.367 241.357 Q 100.928 245.166 99.683 247.07 L 99.683 247.07 L 99.683 247.07 Q 98.438 248.975 97.046 249.634 L 97.046 249.634 L 97.046 249.634 Q 95.654 250.293 94.482 250 L 94.482 250 L 94.482 250 Q 93.311 249.707 93.018 248.975 L 93.018 248.975 L 93.018 248.975 Q 92.725 248.242 92.065 248.096 L 92.065 248.096 L 92.065 248.096 Q 91.406 247.949 90.674 247.876 L 90.674 247.876 L 90.674 247.876 Q 89.941 247.803 89.282 247.437 L 89.282 247.437 L 89.282 247.437 Q 88.623 247.07 88.477 245.898 L 88.477 245.898 L 88.477 245.898 Q 87.305 240.918 87.012 233.228 L 87.012 233.228 L 87.012 233.228 Q 86.719 225.537 86.719 215.869 L 86.719 215.869 L 86.719 215.869 Q 86.719 207.52 86.865 197.852 L 86.865 197.852 L 86.865 197.852 Q 87.012 188.184 87.012 178.076 L 87.012 178.076 L 87.012 178.076 Q 87.012 172.217 87.012 166.431 L 87.012 166.431 L 87.012 166.431 Q 87.012 160.645 86.719 154.639 L 86.719 154.639 L 86.719 145.41 L 86.719 145.41 Q 86.719 133.545 87.305 121.606 L 87.305 121.606 L 87.305 121.606 Q 87.891 109.668 88.77 98.682 L 88.77 98.682 L 88.77 98.682 Q 89.648 87.695 90.674 78.027 L 90.674 78.027 L 90.674 78.027 Q 91.699 68.359 92.432 60.889 L 92.432 60.889 L 92.432 60.889 Q 93.164 53.418 93.604 48.73 L 93.604 48.73 L 93.604 48.73 Q 94.043 44.043 93.896 42.871 L 93.896 42.871 L 93.896 42.871 Q 93.75 41.846 94.116 41.406 L 94.116 41.406 L 94.116 41.406 Q 94.482 40.967 95.142 40.894 L 95.142 40.894 L 95.142 40.894 Q 95.801 40.82 96.533 40.747 L 96.533 40.747 L 96.533 40.747 Q 97.266 40.674 97.852 40.381 L 97.852 40.381 L 97.852 40.381 Q 98.877 39.795 99.536 40.015 L 99.536 40.015 L 99.536 40.015 Q 100.195 40.234 100.635 40.674 L 100.635 40.674 L 100.635 40.674 Q 101.074 41.113 101.44 41.626 L 101.44 41.626 L 101.44 41.626 Q 101.807 42.139 102.539 42.139 L 102.539 42.139 L 102.539 42.139 Q 103.418 41.992 103.931 41.626 L 103.931 41.626 L 103.931 41.626 Q 104.443 41.26 104.81 40.894 L 104.81 40.894 L 104.81 40.894 Q 105.176 40.527 105.542 40.234 L 105.542 40.234 L 105.542 40.234 Q 105.908 39.941 106.494 40.088 L 106.494 40.088 L 106.494 40.088 Q 107.666 40.381 108.765 40.454 L 108.765 40.454 L 108.765 40.454 Q 109.863 40.527 109.863 40.088 L 109.863 40.088 L 109.863 40.088 Q 110.156 38.916 110.742 38.989 L 110.742 38.989 L 110.742 38.989 Q 111.328 39.063 112.207 39.795 L 112.207 39.795 L 112.207 39.795 Q 113.086 40.527 113.672 41.333 L 113.672 41.333 L 113.672 41.333 Q 114.258 42.139 114.258 43.75 Z  M 237.598 177.49 L 237.598 177.49 L 237.598 177.49 Q 237.598 192.871 233.13 205.176 L 233.13 205.176 L 233.13 205.176 Q 228.662 217.48 220.972 226.123 L 220.972 226.123 L 220.972 226.123 Q 213.281 234.766 203.174 239.453 L 203.174 239.453 L 203.174 239.453 Q 193.066 244.141 181.787 244.141 L 181.787 244.141 L 181.787 244.141 Q 177.1 244.141 171.533 243.042 L 171.533 243.042 L 171.533 243.042 Q 165.967 241.943 160.4 239.453 L 160.4 239.453 L 160.4 239.453 Q 154.834 236.963 149.561 232.861 L 149.561 232.861 L 149.561 232.861 Q 144.287 228.76 140.186 222.754 L 140.186 222.754 L 140.186 222.754 Q 136.084 216.748 133.667 208.691 L 133.667 208.691 L 133.667 208.691 Q 131.25 200.635 131.396 190.088 L 131.396 190.088 L 131.396 190.088 Q 131.396 178.076 134.326 168.188 L 134.326 168.188 L 134.326 168.188 Q 137.256 158.301 141.87 150.464 L 141.87 150.464 L 141.87 150.464 Q 146.484 142.627 152.344 136.914 L 152.344 136.914 L 152.344 136.914 Q 158.203 131.201 164.063 127.319 L 164.063 127.319 L 164.063 127.319 Q 169.922 123.438 175.342 121.533 L 175.342 121.533 L 175.342 121.533 Q 180.762 119.629 184.717 119.336 L 184.717 119.336 L 184.717 119.336 Q 186.768 119.189 186.548 119.775 L 186.548 119.775 L 186.548 119.775 Q 186.328 120.361 185.449 121.094 L 185.449 121.094 L 185.449 121.094 Q 184.57 121.826 183.911 122.559 L 183.911 122.559 L 183.911 122.559 Q 183.252 123.291 184.424 123.438 L 184.424 123.438 L 184.424 123.438 Q 185.449 123.73 186.108 124.023 L 186.108 124.023 L 186.108 124.023 Q 186.768 124.316 187.5 124.756 L 187.5 124.756 L 188.672 123.438 L 188.672 123.438 Q 189.697 122.705 190.649 122.705 L 190.649 122.705 L 190.649 122.705 Q 191.602 122.705 192.334 122.925 L 192.334 122.925 L 192.334 122.925 Q 193.066 123.145 193.506 123.145 L 193.506 123.145 L 193.506 123.145 Q 193.945 123.145 194.092 122.266 L 194.092 122.266 L 194.092 122.266 Q 194.385 120.654 195.19 120.435 L 195.19 120.435 L 195.19 120.435 Q 195.996 120.215 198.926 120.215 L 198.926 120.215 L 198.926 120.215 Q 200.684 120.215 204.272 121.24 L 204.272 121.24 L 204.272 121.24 Q 207.861 122.266 212.183 124.756 L 212.183 124.756 L 212.183 124.756 Q 216.504 127.246 220.972 131.421 L 220.972 131.421 L 220.972 131.421 Q 225.439 135.596 229.175 141.968 L 229.175 141.968 L 229.175 141.968 Q 232.91 148.34 235.254 157.129 L 235.254 157.129 L 235.254 157.129 Q 237.598 165.918 237.598 177.49 Z  M 184.717 134.57 L 184.717 134.57 L 184.717 134.57 Q 179.59 137.646 174.609 142.92 L 174.609 142.92 L 174.609 142.92 Q 169.629 148.193 165.601 155.078 L 165.601 155.078 L 165.601 155.078 Q 161.572 161.963 159.082 170.459 L 159.082 170.459 L 159.082 170.459 Q 156.592 178.955 156.592 188.33 L 156.592 188.33 L 156.592 188.33 Q 156.592 198.438 158.423 206.641 L 158.423 206.641 L 158.423 206.641 Q 160.254 214.844 163.77 220.63 L 163.77 220.63 L 163.77 220.63 Q 167.285 226.416 172.339 229.565 L 172.339 229.565 L 172.339 229.565 Q 177.393 232.715 183.838 232.715 L 183.838 232.715 L 183.838 232.715 Q 189.551 232.715 195.19 229.492 L 195.19 229.492 L 195.19 229.492 Q 200.83 226.27 205.225 219.824 L 205.225 219.824 L 205.225 219.824 Q 209.619 213.379 212.329 203.857 L 212.329 203.857 L 212.329 203.857 Q 215.039 194.336 215.039 181.738 L 215.039 181.738 L 215.039 181.738 Q 215.039 168.994 211.67 160.352 L 211.67 160.352 L 211.67 160.352 Q 208.301 151.709 204.126 146.362 L 204.126 146.362 L 204.126 146.362 Q 199.951 141.016 196.143 138.745 L 196.143 138.745 L 196.143 138.745 Q 192.334 136.475 191.455 136.475 L 191.455 136.475 L 191.455 136.475 Q 189.404 136.475 188.306 136.475 L 188.306 136.475 L 188.306 136.475 Q 187.207 136.475 184.717 134.57 Z  M 349.512 124.17 L 349.512 124.17 L 349.512 124.17 Q 349.951 125.049 350.024 125.928 L 350.024 125.928 L 350.024 125.928 Q 350.098 126.807 350.098 127.979 L 350.098 127.979 L 350.098 127.979 Q 350.098 132.666 345.19 137.793 L 345.19 137.793 L 345.19 137.793 Q 340.283 142.92 329.736 147.168 L 329.736 147.168 L 329.736 147.168 Q 327.539 148.047 325.781 148.047 L 325.781 148.047 L 325.781 148.047 Q 323.584 148.047 322.046 146.802 L 322.046 146.802 L 322.046 146.802 Q 320.508 145.557 320.508 144.238 L 320.508 144.238 L 320.508 144.238 Q 320.508 143.359 321.606 142.188 L 321.606 142.188 L 321.606 142.188 Q 322.705 141.016 323.95 139.844 L 323.95 139.844 L 323.95 139.844 Q 325.195 138.672 326.294 137.646 L 326.294 137.646 L 326.294 137.646 Q 327.393 136.621 327.393 136.035 L 327.393 136.035 L 327.393 136.035 Q 327.393 134.863 325.488 134.863 L 325.488 134.863 L 325.488 134.863 Q 322.559 134.863 318.018 136.548 L 318.018 136.548 L 318.018 136.548 Q 313.477 138.232 308.423 140.942 L 308.423 140.942 L 308.423 140.942 Q 303.369 143.652 298.169 146.802 L 298.169 146.802 L 298.169 146.802 Q 292.969 149.951 288.867 152.954 L 288.867 152.954 L 288.867 152.954 Q 284.766 155.957 282.202 158.301 L 282.202 158.301 L 282.202 158.301 Q 279.639 160.645 279.639 161.67 L 279.639 161.67 L 279.639 161.67 Q 279.639 162.256 280.811 162.256 L 280.811 162.256 L 285.059 162.256 L 285.059 162.256 Q 289.014 162.256 295.239 162.695 L 295.239 162.695 L 295.239 162.695 Q 301.465 163.135 308.35 164.38 L 308.35 164.38 L 308.35 164.38 Q 315.234 165.625 322.192 167.896 L 322.192 167.896 L 322.192 167.896 Q 329.15 170.166 334.644 173.975 L 334.644 173.975 L 334.644 173.975 Q 340.137 177.783 343.652 183.203 L 343.652 183.203 L 343.652 183.203 Q 347.168 188.623 347.168 196.094 L 347.168 196.094 L 347.168 196.094 Q 347.168 199.902 345.923 204.224 L 345.923 204.224 L 345.923 204.224 Q 344.678 208.545 341.528 213.013 L 341.528 213.013 L 341.528 213.013 Q 338.379 217.48 332.959 222.095 L 332.959 222.095 L 332.959 222.095 Q 327.539 226.709 319.189 231.25 L 319.189 231.25 L 319.189 231.25 Q 306.592 237.988 295.679 241.211 L 295.679 241.211 L 295.679 241.211 Q 284.766 244.434 275.977 244.434 L 275.977 244.434 L 275.977 244.434 Q 264.551 244.434 257.959 239.307 L 257.959 239.307 L 257.959 239.307 Q 251.367 234.18 251.367 224.658 L 251.367 224.658 L 251.367 224.658 Q 251.367 217.627 254.077 212.646 L 254.077 212.646 L 254.077 212.646 Q 256.787 207.666 260.449 204.37 L 260.449 204.37 L 260.449 204.37 Q 264.111 201.074 267.773 199.536 L 267.773 199.536 L 267.773 199.536 Q 271.436 197.998 273.34 197.852 L 273.34 197.852 L 273.34 197.852 Q 274.219 197.852 274.878 197.705 L 274.878 197.705 L 274.878 197.705 Q 275.537 197.559 276.27 197.559 L 276.27 197.559 L 276.27 197.559 Q 277.588 197.559 277.588 199.17 L 277.588 199.17 L 277.588 200.635 L 277.588 200.635 Q 277.588 201.514 278.027 202.173 L 278.027 202.173 L 278.027 202.173 Q 278.467 202.832 278.467 203.564 L 278.467 203.564 L 278.467 203.564 Q 278.467 204.443 276.343 206.201 L 276.343 206.201 L 276.343 206.201 Q 274.219 207.959 271.729 210.303 L 271.729 210.303 L 271.729 210.303 Q 269.238 212.646 267.114 215.283 L 267.114 215.283 L 267.114 215.283 Q 264.99 217.92 264.99 220.41 L 264.99 220.41 L 264.99 220.41 Q 264.99 223.34 269.678 223.34 L 269.678 223.34 L 269.678 223.34 Q 275.537 223.34 282.056 221.069 L 282.056 221.069 L 282.056 221.069 Q 288.574 218.799 294.8 215.283 L 294.8 215.283 L 294.8 215.283 Q 301.025 211.768 306.665 207.3 L 306.665 207.3 L 306.665 207.3 Q 312.305 202.832 316.553 198.584 L 316.553 198.584 L 316.553 198.584 Q 320.801 194.336 323.291 190.601 L 323.291 190.601 L 323.291 190.601 Q 325.781 186.865 325.781 184.668 L 325.781 184.668 L 325.781 184.668 Q 325.781 182.031 322.778 180.42 L 322.778 180.42 L 322.778 180.42 Q 319.775 178.809 314.575 177.783 L 314.575 177.783 L 314.575 177.783 Q 309.375 176.758 302.49 176.392 L 302.49 176.392 L 302.49 176.392 Q 295.605 176.025 287.988 176.025 L 287.988 176.025 L 287.988 176.025 Q 280.078 176.025 274.878 176.758 L 274.878 176.758 L 274.878 176.758 Q 269.678 177.49 268.506 177.49 L 268.506 177.49 L 268.506 177.49 Q 267.627 177.49 265.649 177.271 L 265.649 177.271 L 265.649 177.271 Q 263.672 177.051 261.694 175.952 L 261.694 175.952 L 261.694 175.952 Q 259.717 174.854 258.252 172.656 L 258.252 172.656 L 258.252 172.656 Q 256.787 170.459 256.787 166.357 L 256.787 166.357 L 256.787 166.357 Q 256.787 163.574 258.032 160.059 L 258.032 160.059 L 258.032 160.059 Q 259.277 156.543 262.427 152.515 L 262.427 152.515 L 262.427 152.515 Q 265.576 148.486 271.069 143.799 L 271.069 143.799 L 271.069 143.799 Q 276.563 139.111 285.059 133.984 L 285.059 133.984 L 285.059 133.984 Q 293.994 128.564 301.831 125.122 L 301.831 125.122 L 301.831 125.122 Q 309.668 121.68 316.04 119.775 L 316.04 119.775 L 316.04 119.775 Q 322.412 117.871 327.246 117.212 L 327.246 117.212 L 327.246 117.212 Q 332.08 116.553 334.863 116.553 L 334.863 116.553 L 334.863 116.553 Q 341.455 116.553 344.678 118.237 L 344.678 118.237 L 344.678 118.237 Q 347.9 119.922 349.512 124.17 Z  M 409.57 67.041 L 409.57 67.041 L 409.57 67.041 Q 409.57 67.92 409.277 71.655 L 409.277 71.655 L 409.277 71.655 Q 408.984 75.391 408.472 81.543 L 408.472 81.543 L 408.472 81.543 Q 407.959 87.695 407.227 95.825 L 407.227 95.825 L 407.227 95.825 Q 406.494 103.955 405.762 113.33 L 405.762 113.33 L 405.762 113.33 Q 414.99 112.158 423.267 111.499 L 423.267 111.499 L 423.267 111.499 Q 431.543 110.84 437.256 110.84 L 437.256 110.84 L 437.256 110.84 Q 439.16 110.84 440.625 111.572 L 440.625 111.572 L 440.625 111.572 Q 442.09 112.305 443.042 113.257 L 443.042 113.257 L 443.042 113.257 Q 443.994 114.209 444.58 115.308 L 444.58 115.308 L 444.58 115.308 Q 445.166 116.406 445.313 117.139 L 445.313 117.139 L 445.313 117.139 Q 445.313 117.871 445.459 118.53 L 445.459 118.53 L 445.459 118.53 Q 445.605 119.189 445.605 119.922 L 445.605 119.922 L 445.605 119.922 Q 445.605 122.852 443.042 125.781 L 443.042 125.781 L 443.042 125.781 Q 440.479 128.711 435.352 129.443 L 435.352 129.443 L 404.15 132.813 L 404.15 132.813 Q 403.418 143.359 402.832 154.492 L 402.832 154.492 L 402.832 154.492 Q 402.246 165.625 401.733 176.685 L 401.733 176.685 L 401.733 176.685 Q 401.221 187.744 400.928 198.438 L 400.928 198.438 L 400.928 198.438 Q 400.635 209.131 400.635 218.652 L 400.635 218.652 L 400.635 218.652 Q 400.635 224.805 400.928 228.613 L 400.928 228.613 L 400.928 228.613 Q 401.221 232.422 401.221 233.594 L 401.221 233.594 L 401.221 233.594 Q 401.221 236.084 400.269 238.501 L 400.269 238.501 L 400.269 238.501 Q 399.316 240.918 398.071 242.896 L 398.071 242.896 L 398.071 242.896 Q 396.826 244.873 395.435 246.118 L 395.435 246.118 L 395.435 246.118 Q 394.043 247.363 393.164 247.363 L 393.164 247.363 L 393.164 247.363 Q 387.891 247.363 384.814 244.067 L 384.814 244.067 L 384.814 244.067 Q 381.738 240.771 380.2 235.205 L 380.2 235.205 L 380.2 235.205 Q 378.662 229.639 378.223 222.461 L 378.223 222.461 L 378.223 222.461 Q 377.783 215.283 377.783 207.52 L 377.783 207.52 L 377.783 207.52 Q 377.783 189.209 378.809 170.825 L 378.809 170.825 L 378.809 170.825 Q 379.834 152.441 381.738 135.449 L 381.738 135.449 L 363.428 137.646 L 363.428 137.646 Q 362.988 137.646 362.549 137.793 L 362.549 137.793 L 362.549 137.793 Q 362.109 137.939 361.523 137.939 L 361.523 137.939 L 361.523 137.939 Q 358.74 137.939 357.056 136.621 L 357.056 136.621 L 357.056 136.621 Q 355.371 135.303 354.492 133.545 L 354.492 133.545 L 354.492 133.545 Q 353.613 131.787 353.394 129.956 L 353.394 129.956 L 353.394 129.956 Q 353.174 128.125 353.174 127.1 L 353.174 127.1 L 353.174 127.1 Q 353.174 125.049 353.76 123.291 L 353.76 123.291 L 353.76 123.291 Q 354.346 121.533 355.957 121.094 L 355.957 121.094 L 355.957 121.094 Q 359.033 119.922 366.724 118.53 L 366.724 118.53 L 366.724 118.53 Q 374.414 117.139 384.082 115.674 L 384.082 115.674 L 384.082 115.674 Q 385.693 103.809 387.378 93.921 L 387.378 93.921 L 387.378 93.921 Q 389.063 84.033 390.674 76.782 L 390.674 76.782 L 390.674 76.782 Q 392.285 69.531 393.677 65.503 L 393.677 65.503 L 393.677 65.503 Q 395.068 61.475 396.094 61.475 L 396.094 61.475 L 396.094 61.475 Q 396.387 61.475 396.826 61.621 L 396.826 61.621 L 396.826 61.621 Q 397.266 61.768 397.559 61.768 L 397.559 61.768 L 397.559 61.768 Q 398.438 61.768 398.95 60.815 L 398.95 60.815 L 398.95 60.815 Q 399.463 59.863 400.928 59.863 L 400.928 59.863 L 400.928 59.863 Q 402.246 59.863 403.784 60.669 L 403.784 60.669 L 403.784 60.669 Q 405.322 61.475 406.567 62.646 L 406.567 62.646 L 406.567 62.646 Q 407.813 63.818 408.691 65.063 L 408.691 65.063 L 408.691 65.063 Q 409.57 66.309 409.57 67.041 Z " fill="rgb(0,0,0)"/><path d=" M 114.258 43.75 L 114.258 43.75 L 114.258 43.75 Q 114.258 45.801 113.965 51.807 L 113.965 51.807 L 113.965 51.807 Q 113.672 57.813 113.232 66.235 L 113.232 66.235 L 113.232 66.235 Q 112.793 74.658 112.28 84.692 L 112.28 84.692 L 112.28 84.692 Q 111.768 94.727 111.182 104.761 L 111.182 104.761 L 111.182 104.761 Q 110.596 114.795 110.156 124.17 L 110.156 124.17 L 110.156 124.17 Q 109.717 133.545 109.57 140.576 L 109.57 140.576 L 109.57 140.576 Q 109.277 144.824 109.204 149.951 L 109.204 149.951 L 109.204 149.951 Q 109.131 155.078 109.131 160.938 L 109.131 160.938 L 109.131 160.938 Q 109.131 168.701 109.204 177.124 L 109.204 177.124 L 109.204 177.124 Q 109.277 185.547 109.424 193.75 L 109.424 193.75 L 109.424 193.75 Q 109.57 201.953 109.79 209.497 L 109.79 209.497 L 109.79 209.497 Q 110.01 217.041 110.156 223.047 L 110.156 223.047 L 110.156 223.047 Q 110.303 229.053 110.376 233.081 L 110.376 233.081 L 110.376 233.081 Q 110.449 237.109 110.449 238.135 L 110.449 238.135 L 110.449 238.135 Q 110.449 240.186 109.79 241.284 L 109.79 241.284 L 109.79 241.284 Q 109.131 242.383 108.179 242.749 L 108.179 242.749 L 108.179 242.749 Q 107.227 243.115 106.201 242.896 L 106.201 242.896 L 106.201 242.896 Q 105.176 242.676 104.443 242.236 L 104.443 242.236 L 104.443 242.236 Q 103.564 241.797 103.052 241.211 L 103.052 241.211 L 103.052 241.211 Q 102.539 240.625 102.246 240.332 L 102.246 240.332 L 102.246 240.332 Q 101.953 240.039 101.733 240.186 L 101.733 240.186 L 101.733 240.186 Q 101.514 240.332 101.367 241.357 L 101.367 241.357 L 101.367 241.357 Q 100.928 245.166 99.683 247.07 L 99.683 247.07 L 99.683 247.07 Q 98.438 248.975 97.046 249.634 L 97.046 249.634 L 97.046 249.634 Q 95.654 250.293 94.482 250 L 94.482 250 L 94.482 250 Q 93.311 249.707 93.018 248.975 L 93.018 248.975 L 93.018 248.975 Q 92.725 248.242 92.065 248.096 L 92.065 248.096 L 92.065 248.096 Q 91.406 247.949 90.674 247.876 L 90.674 247.876 L 90.674 247.876 Q 89.941 247.803 89.282 247.437 L 89.282 247.437 L 89.282 247.437 Q 88.623 247.07 88.477 245.898 L 88.477 245.898 L 88.477 245.898 Q 87.305 240.918 87.012 233.228 L 87.012 233.228 L 87.012 233.228 Q 86.719 225.537 86.719 215.869 L 86.719 215.869 L 86.719 215.869 Q 86.719 207.52 86.865 197.852 L 86.865 197.852 L 86.865 197.852 Q 87.012 188.184 87.012 178.076 L 87.012 178.076 L 87.012 178.076 Q 87.012 172.217 87.012 166.431 L 87.012 166.431 L 87.012 166.431 Q 87.012 160.645 86.719 154.639 L 86.719 154.639 L 86.719 145.41 L 86.719 145.41 Q 86.719 133.545 87.305 121.606 L 87.305 121.606 L 87.305 121.606 Q 87.891 109.668 88.77 98.682 L 88.77 98.682 L 88.77 98.682 Q 89.648 87.695 90.674 78.027 L 90.674 78.027 L 90.674 78.027 Q 91.699 68.359 92.432 60.889 L 92.432 60.889 L 92.432 60.889 Q 93.164 53.418 93.604 48.73 L 93.604 48.73 L 93.604 48.73 Q 94.043 44.043 93.896 42.871 L 93.896 42.871 L 93.896 42.871 Q 93.75 41.846 94.116 41.406 L 94.116 41.406 L 94.116 41.406 Q 94.482 40.967 95.142 40.894 L 95.142 40.894 L 95.142 40.894 Q 95.801 40.82 96.533 40.747 L 96.533 40.747 L 96.533 40.747 Q 97.266 40.674 97.852 40.381 L 97.852 40.381 L 97.852 40.381 Q 98.877 39.795 99.536 40.015 L 99.536 40.015 L 99.536 40.015 Q 100.195 40.234 100.635 40.674 L 100.635 40.674 L 100.635 40.674 Q 101.074 41.113 101.44 41.626 L 101.44 41.626 L 101.44 41.626 Q 101.807 42.139 102.539 42.139 L 102.539 42.139 L 102.539 42.139 Q 103.418 41.992 103.931 41.626 L 103.931 41.626 L 103.931 41.626 Q 104.443 41.26 104.81 40.894 L 104.81 40.894 L 104.81 40.894 Q 105.176 40.527 105.542 40.234 L 105.542 40.234 L 105.542 40.234 Q 105.908 39.941 106.494 40.088 L 106.494 40.088 L 106.494 40.088 Q 107.666 40.381 108.765 40.454 L 108.765 40.454 L 108.765 40.454 Q 109.863 40.527 109.863 40.088 L 109.863 40.088 L 109.863 40.088 Q 110.156 38.916 110.742 38.989 L 110.742 38.989 L 110.742 38.989 Q 111.328 39.063 112.207 39.795 L 112.207 39.795 L 112.207 39.795 Q 113.086 40.527 113.672 41.333 L 113.672 41.333 L 113.672 41.333 Q 114.258 42.139 114.258 43.75 Z  M 237.598 177.49 L 237.598 177.49 L 237.598 177.49 Q 237.598 192.871 233.13 205.176 L 233.13 205.176 L 233.13 205.176 Q 228.662 217.48 220.972 226.123 L 220.972 226.123 L 220.972 226.123 Q 213.281 234.766 203.174 239.453 L 203.174 239.453 L 203.174 239.453 Q 193.066 244.141 181.787 244.141 L 181.787 244.141 L 181.787 244.141 Q 177.1 244.141 171.533 243.042 L 171.533 243.042 L 171.533 243.042 Q 165.967 241.943 160.4 239.453 L 160.4 239.453 L 160.4 239.453 Q 154.834 236.963 149.561 232.861 L 149.561 232.861 L 149.561 232.861 Q 144.287 228.76 140.186 222.754 L 140.186 222.754 L 140.186 222.754 Q 136.084 216.748 133.667 208.691 L 133.667 208.691 L 133.667 208.691 Q 131.25 200.635 131.396 190.088 L 131.396 190.088 L 131.396 190.088 Q 131.396 178.076 134.326 168.188 L 134.326 168.188 L 134.326 168.188 Q 137.256 158.301 141.87 150.464 L 141.87 150.464 L 141.87 150.464 Q 146.484 142.627 152.344 136.914 L 152.344 136.914 L 152.344 136.914 Q 158.203 131.201 164.063 127.319 L 164.063 127.319 L 164.063 127.319 Q 169.922 123.438 175.342 121.533 L 175.342 121.533 L 175.342 121.533 Q 180.762 119.629 184.717 119.336 L 184.717 119.336 L 184.717 119.336 Q 186.768 119.189 186.548 119.775 L 186.548 119.775 L 186.548 119.775 Q 186.328 120.361 185.449 121.094 L 185.449 121.094 L 185.449 121.094 Q 184.57 121.826 183.911 122.559 L 183.911 122.559 L 183.911 122.559 Q 183.252 123.291 184.424 123.438 L 184.424 123.438 L 184.424 123.438 Q 185.449 123.73 186.108 124.023 L 186.108 124.023 L 186.108 124.023 Q 186.768 124.316 187.5 124.756 L 187.5 124.756 L 188.672 123.438 L 188.672 123.438 Q 189.697 122.705 190.649 122.705 L 190.649 122.705 L 190.649 122.705 Q 191.602 122.705 192.334 122.925 L 192.334 122.925 L 192.334 122.925 Q 193.066 123.145 193.506 123.145 L 193.506 123.145 L 193.506 123.145 Q 193.945 123.145 194.092 122.266 L 194.092 122.266 L 194.092 122.266 Q 194.385 120.654 195.19 120.435 L 195.19 120.435 L 195.19 120.435 Q 195.996 120.215 198.926 120.215 L 198.926 120.215 L 198.926 120.215 Q 200.684 120.215 204.272 121.24 L 204.272 121.24 L 204.272 121.24 Q 207.861 122.266 212.183 124.756 L 212.183 124.756 L 212.183 124.756 Q 216.504 127.246 220.972 131.421 L 220.972 131.421 L 220.972 131.421 Q 225.439 135.596 229.175 141.968 L 229.175 141.968 L 229.175 141.968 Q 232.91 148.34 235.254 157.129 L 235.254 157.129 L 235.254 157.129 Q 237.598 165.918 237.598 177.49 Z  M 184.717 134.57 L 184.717 134.57 L 184.717 134.57 Q 179.59 137.646 174.609 142.92 L 174.609 142.92 L 174.609 142.92 Q 169.629 148.193 165.601 155.078 L 165.601 155.078 L 165.601 155.078 Q 161.572 161.963 159.082 170.459 L 159.082 170.459 L 159.082 170.459 Q 156.592 178.955 156.592 188.33 L 156.592 188.33 L 156.592 188.33 Q 156.592 198.438 158.423 206.641 L 158.423 206.641 L 158.423 206.641 Q 160.254 214.844 163.77 220.63 L 163.77 220.63 L 163.77 220.63 Q 167.285 226.416 172.339 229.565 L 172.339 229.565 L 172.339 229.565 Q 177.393 232.715 183.838 232.715 L 183.838 232.715 L 183.838 232.715 Q 189.551 232.715 195.19 229.492 L 195.19 229.492 L 195.19 229.492 Q 200.83 226.27 205.225 219.824 L 205.225 219.824 L 205.225 219.824 Q 209.619 213.379 212.329 203.857 L 212.329 203.857 L 212.329 203.857 Q 215.039 194.336 215.039 181.738 L 215.039 181.738 L 215.039 181.738 Q 215.039 168.994 211.67 160.352 L 211.67 160.352 L 211.67 160.352 Q 208.301 151.709 204.126 146.362 L 204.126 146.362 L 204.126 146.362 Q 199.951 141.016 196.143 138.745 L 196.143 138.745 L 196.143 138.745 Q 192.334 136.475 191.455 136.475 L 191.455 136.475 L 191.455 136.475 Q 189.404 136.475 188.306 136.475 L 188.306 136.475 L 188.306 136.475 Q 187.207 136.475 184.717 134.57 Z  M 349.512 124.17 L 349.512 124.17 L 349.512 124.17 Q 349.951 125.049 350.024 125.928 L 350.024 125.928 L 350.024 125.928 Q 350.098 126.807 350.098 127.979 L 350.098 127.979 L 350.098 127.979 Q 350.098 132.666 345.19 137.793 L 345.19 137.793 L 345.19 137.793 Q 340.283 142.92 329.736 147.168 L 329.736 147.168 L 329.736 147.168 Q 327.539 148.047 325.781 148.047 L 325.781 148.047 L 325.781 148.047 Q 323.584 148.047 322.046 146.802 L 322.046 146.802 L 322.046 146.802 Q 320.508 145.557 320.508 144.238 L 320.508 144.238 L 320.508 144.238 Q 320.508 143.359 321.606 142.188 L 321.606 142.188 L 321.606 142.188 Q 322.705 141.016 323.95 139.844 L 323.95 139.844 L 323.95 139.844 Q 325.195 138.672 326.294 137.646 L 326.294 137.646 L 326.294 137.646 Q 327.393 136.621 327.393 136.035 L 327.393 136.035 L 327.393 136.035 Q 327.393 134.863 325.488 134.863 L 325.488 134.863 L 325.488 134.863 Q 322.559 134.863 318.018 136.548 L 318.018 136.548 L 318.018 136.548 Q 313.477 138.232 308.423 140.942 L 308.423 140.942 L 308.423 140.942 Q 303.369 143.652 298.169 146.802 L 298.169 146.802 L 298.169 146.802 Q 292.969 149.951 288.867 152.954 L 288.867 152.954 L 288.867 152.954 Q 284.766 155.957 282.202 158.301 L 282.202 158.301 L 282.202 158.301 Q 279.639 160.645 279.639 161.67 L 279.639 161.67 L 279.639 161.67 Q 279.639 162.256 280.811 162.256 L 280.811 162.256 L 285.059 162.256 L 285.059 162.256 Q 289.014 162.256 295.239 162.695 L 295.239 162.695 L 295.239 162.695 Q 301.465 163.135 308.35 164.38 L 308.35 164.38 L 308.35 164.38 Q 315.234 165.625 322.192 167.896 L 322.192 167.896 L 322.192 167.896 Q 329.15 170.166 334.644 173.975 L 334.644 173.975 L 334.644 173.975 Q 340.137 177.783 343.652 183.203 L 343.652 183.203 L 343.652 183.203 Q 347.168 188.623 347.168 196.094 L 347.168 196.094 L 347.168 196.094 Q 347.168 199.902 345.923 204.224 L 345.923 204.224 L 345.923 204.224 Q 344.678 208.545 341.528 213.013 L 341.528 213.013 L 341.528 213.013 Q 338.379 217.48 332.959 222.095 L 332.959 222.095 L 332.959 222.095 Q 327.539 226.709 319.189 231.25 L 319.189 231.25 L 319.189 231.25 Q 306.592 237.988 295.679 241.211 L 295.679 241.211 L 295.679 241.211 Q 284.766 244.434 275.977 244.434 L 275.977 244.434 L 275.977 244.434 Q 264.551 244.434 257.959 239.307 L 257.959 239.307 L 257.959 239.307 Q 251.367 234.18 251.367 224.658 L 251.367 224.658 L 251.367 224.658 Q 251.367 217.627 254.077 212.646 L 254.077 212.646 L 254.077 212.646 Q 256.787 207.666 260.449 204.37 L 260.449 204.37 L 260.449 204.37 Q 264.111 201.074 267.773 199.536 L 267.773 199.536 L 267.773 199.536 Q 271.436 197.998 273.34 197.852 L 273.34 197.852 L 273.34 197.852 Q 274.219 197.852 274.878 197.705 L 274.878 197.705 L 274.878 197.705 Q 275.537 197.559 276.27 197.559 L 276.27 197.559 L 276.27 197.559 Q 277.588 197.559 277.588 199.17 L 277.588 199.17 L 277.588 200.635 L 277.588 200.635 Q 277.588 201.514 278.027 202.173 L 278.027 202.173 L 278.027 202.173 Q 278.467 202.832 278.467 203.564 L 278.467 203.564 L 278.467 203.564 Q 278.467 204.443 276.343 206.201 L 276.343 206.201 L 276.343 206.201 Q 274.219 207.959 271.729 210.303 L 271.729 210.303 L 271.729 210.303 Q 269.238 212.646 267.114 215.283 L 267.114 215.283 L 267.114 215.283 Q 264.99 217.92 264.99 220.41 L 264.99 220.41 L 264.99 220.41 Q 264.99 223.34 269.678 223.34 L 269.678 223.34 L 269.678 223.34 Q 275.537 223.34 282.056 221.069 L 282.056 221.069 L 282.056 221.069 Q 288.574 218.799 294.8 215.283 L 294.8 215.283 L 294.8 215.283 Q 301.025 211.768 306.665 207.3 L 306.665 207.3 L 306.665 207.3 Q 312.305 202.832 316.553 198.584 L 316.553 198.584 L 316.553 198.584 Q 320.801 194.336 323.291 190.601 L 323.291 190.601 L 323.291 190.601 Q 325.781 186.865 325.781 184.668 L 325.781 184.668 L 325.781 184.668 Q 325.781 182.031 322.778 180.42 L 322.778 180.42 L 322.778 180.42 Q 319.775 178.809 314.575 177.783 L 314.575 177.783 L 314.575 177.783 Q 309.375 176.758 302.49 176.392 L 302.49 176.392 L 302.49 176.392 Q 295.605 176.025 287.988 176.025 L 287.988 176.025 L 287.988 176.025 Q 280.078 176.025 274.878 176.758 L 274.878 176.758 L 274.878 176.758 Q 269.678 177.49 268.506 177.49 L 268.506 177.49 L 268.506 177.49 Q 267.627 177.49 265.649 177.271 L 265.649 177.271 L 265.649 177.271 Q 263.672 177.051 261.694 175.952 L 261.694 175.952 L 261.694 175.952 Q 259.717 174.854 258.252 172.656 L 258.252 172.656 L 258.252 172.656 Q 256.787 170.459 256.787 166.357 L 256.787 166.357 L 256.787 166.357 Q 256.787 163.574 258.032 160.059 L 258.032 160.059 L 258.032 160.059 Q 259.277 156.543 262.427 152.515 L 262.427 152.515 L 262.427 152.515 Q 265.576 148.486 271.069 143.799 L 271.069 143.799 L 271.069 143.799 Q 276.563 139.111 285.059 133.984 L 285.059 133.984 L 285.059 133.984 Q 293.994 128.564 301.831 125.122 L 301.831 125.122 L 301.831 125.122 Q 309.668 121.68 316.04 119.775 L 316.04 119.775 L 316.04 119.775 Q 322.412 117.871 327.246 117.212 L 327.246 117.212 L 327.246 117.212 Q 332.08 116.553 334.863 116.553 L 334.863 116.553 L 334.863 116.553 Q 341.455 116.553 344.678 118.237 L 344.678 118.237 L 344.678 118.237 Q 347.9 119.922 349.512 124.17 Z  M 409.57 67.041 L 409.57 67.041 L 409.57 67.041 Q 409.57 67.92 409.277 71.655 L 409.277 71.655 L 409.277 71.655 Q 408.984 75.391 408.472 81.543 L 408.472 81.543 L 408.472 81.543 Q 407.959 87.695 407.227 95.825 L 407.227 95.825 L 407.227 95.825 Q 406.494 103.955 405.762 113.33 L 405.762 113.33 L 405.762 113.33 Q 414.99 112.158 423.267 111.499 L 423.267 111.499 L 423.267 111.499 Q 431.543 110.84 437.256 110.84 L 437.256 110.84 L 437.256 110.84 Q 439.16 110.84 440.625 111.572 L 440.625 111.572 L 440.625 111.572 Q 442.09 112.305 443.042 113.257 L 443.042 113.257 L 443.042 113.257 Q 443.994 114.209 444.58 115.308 L 444.58 115.308 L 444.58 115.308 Q 445.166 116.406 445.313 117.139 L 445.313 117.139 L 445.313 117.139 Q 445.313 117.871 445.459 118.53 L 445.459 118.53 L 445.459 118.53 Q 445.605 119.189 445.605 119.922 L 445.605 119.922 L 445.605 119.922 Q 445.605 122.852 443.042 125.781 L 443.042 125.781 L 443.042 125.781 Q 440.479 128.711 435.352 129.443 L 435.352 129.443 L 404.15 132.813 L 404.15 132.813 Q 403.418 143.359 402.832 154.492 L 402.832 154.492 L 402.832 154.492 Q 402.246 165.625 401.733 176.685 L 401.733 176.685 L 401.733 176.685 Q 401.221 187.744 400.928 198.438 L 400.928 198.438 L 400.928 198.438 Q 400.635 209.131 400.635 218.652 L 400.635 218.652 L 400.635 218.652 Q 400.635 224.805 400.928 228.613 L 400.928 228.613 L 400.928 228.613 Q 401.221 232.422 401.221 233.594 L 401.221 233.594 L 401.221 233.594 Q 401.221 236.084 400.269 238.501 L 400.269 238.501 L 400.269 238.501 Q 399.316 240.918 398.071 242.896 L 398.071 242.896 L 398.071 242.896 Q 396.826 244.873 395.435 246.118 L 395.435 246.118 L 395.435 246.118 Q 394.043 247.363 393.164 247.363 L 393.164 247.363 L 393.164 247.363 Q 387.891 247.363 384.814 244.067 L 384.814 244.067 L 384.814 244.067 Q 381.738 240.771 380.2 235.205 L 380.2 235.205 L 380.2 235.205 Q 378.662 229.639 378.223 222.461 L 378.223 222.461 L 378.223 222.461 Q 377.783 215.283 377.783 207.52 L 377.783 207.52 L 377.783 207.52 Q 377.783 189.209 378.809 170.825 L 378.809 170.825 L 378.809 170.825 Q 379.834 152.441 381.738 135.449 L 381.738 135.449 L 363.428 137.646 L 363.428 137.646 Q 362.988 137.646 362.549 137.793 L 362.549 137.793 L 362.549 137.793 Q 362.109 137.939 361.523 137.939 L 361.523 137.939 L 361.523 137.939 Q 358.74 137.939 357.056 136.621 L 357.056 136.621 L 357.056 136.621 Q 355.371 135.303 354.492 133.545 L 354.492 133.545 L 354.492 133.545 Q 353.613 131.787 353.394 129.956 L 353.394 129.956 L 353.394 129.956 Q 353.174 128.125 353.174 127.1 L 353.174 127.1 L 353.174 127.1 Q 353.174 125.049 353.76 123.291 L 353.76 123.291 L 353.76 123.291 Q 354.346 121.533 355.957 121.094 L 355.957 121.094 L 355.957 121.094 Q 359.033 119.922 366.724 118.53 L 366.724 118.53 L 366.724 118.53 Q 374.414 117.139 384.082 115.674 L 384.082 115.674 L 384.082 115.674 Q 385.693 103.809 387.378 93.921 L 387.378 93.921 L 387.378 93.921 Q 389.063 84.033 390.674 76.782 L 390.674 76.782 L 390.674 76.782 Q 392.285 69.531 393.677 65.503 L 393.677 65.503 L 393.677 65.503 Q 395.068 61.475 396.094 61.475 L 396.094 61.475 L 396.094 61.475 Q 396.387 61.475 396.826 61.621 L 396.826 61.621 L 396.826 61.621 Q 397.266 61.768 397.559 61.768 L 397.559 61.768 L 397.559 61.768 Q 398.438 61.768 398.95 60.815 L 398.95 60.815 L 398.95 60.815 Q 399.463 59.863 400.928 59.863 L 400.928 59.863 L 400.928 59.863 Q 402.246 59.863 403.784 60.669 L 403.784 60.669 L 403.784 60.669 Q 405.322 61.475 406.567 62.646 L 406.567 62.646 L 406.567 62.646 Q 407.813 63.818 408.691 65.063 L 408.691 65.063 L 408.691 65.063 Q 409.57 66.309 409.57 67.041 Z " fill="rgb(0,0,0)"/></g></svg>