<svg id="Layer_1" data-name="Layer 1" xmlns="http://www.w3.org/2000/svg" viewBox="0 0 1917.31 4601"><defs><style>.cls-1{fill:#fff;}</style></defs><title>temple web</title><path class="cls-1" d="M3.69,0V396.55S193.05,255,413.36,371.18c0,0,101.47,30.71,277.71,273.71S999.5,1124.21,1352,1089.5s569-297.74,569-297.74V0Z" transform="translate(-3.69)"/><path class="cls-1" d="M1043.56,1665s-311.1,8-644.89-435.27c0,0-194.47-325.78-395-245.67V4601H283.84c304.42-675.6,627.53-988,627.53-988C1432.09,3100.27,1921,3164.36,1921,3164.36V4203.12C1256.32,4253.86,809.9,4601,809.9,4601H1921V1189.64S1601.66,1727.71,1043.56,1665Z" transform="translate(-3.69)"/></svg>